<?xml version="1.0" standalone="no"?>
<!DOCTYPE svg PUBLIC "-//W3C//DTD SVG 20010904//EN"
 "http://www.w3.org/TR/2001/REC-SVG-20010904/DTD/svg10.dtd">
<svg version="1.0" xmlns="http://www.w3.org/2000/svg"
 width="700.000000pt" height="700.000000pt" viewBox="0 0 700.000000 700.000000"
 preserveAspectRatio="xMidYMid meet">
<metadata>
Created by potrace 1.14, written by Peter Selinger 2001-2017
</metadata>
<g transform="translate(0.000000,700.000000) scale(0.100000,-0.100000)"
fill="#000000" stroke="none">
<path d="M1210 6993 c-226 -25 -453 -108 -640 -237 -41 -28 -120 -96 -175
-151 -194 -193 -316 -423 -372 -700 -17 -85 -18 -208 -18 -2405 0 -2197 1
-2320 18 -2405 56 -277 178 -507 372 -700 195 -195 424 -316 700 -372 85 -17
208 -18 2405 -18 2197 0 2320 1 2405 18 277 56 507 178 700 372 195 196 316
423 372 700 17 85 18 208 18 2405 0 2197 -1 2320 -18 2405 -52 259 -167 484
-342 672 -181 195 -422 331 -700 395 l-100 22 -2295 2 c-1262 0 -2311 -1
-2330 -3z m3940 -1982 c371 -23 718 -182 996 -456 56 -55 130 -138 164 -185
111 -151 223 -411 261 -605 19 -94 19 -436 0 -530 -38 -194 -150 -454 -261
-605 -169 -230 -434 -433 -705 -539 -171 -68 -284 -91 -489 -101 -203 -11
-4408 -14 -4583 -3 l-111 6 71 116 c39 63 114 185 168 270 l97 154 -50 76
c-103 156 -233 459 -274 636 -27 113 -27 413 -1 535 43 200 122 385 238 560
75 113 257 298 376 383 229 163 524 271 783 286 179 11 3147 12 3320 2z"/>
<path d="M3574 4130 c-158 -23 -318 -127 -404 -260 -71 -111 -101 -277 -76
-418 39 -219 196 -393 401 -446 144 -36 297 -26 415 26 56 25 159 98 194 137
l20 22 -79 79 -79 80 -36 -34 c-57 -54 -94 -75 -161 -92 -132 -34 -270 2 -344
88 -162 191 -99 485 124 569 46 17 72 20 146 17 103 -5 166 -31 240 -99 l43
-39 76 86 77 86 -23 25 c-37 39 -162 119 -222 142 -51 19 -194 43 -241 40 -11
-1 -43 -5 -71 -9z"/>
<path d="M1560 3550 l0 -560 120 0 120 0 0 339 c0 209 4 342 10 346 10 6 63
-59 341 -422 215 -281 188 -261 357 -262 l92 -1 0 560 0 560 -125 0 -125 0 -2
-362 -3 -363 -275 363 -275 362 -117 0 -118 0 0 -560z"/>
<path d="M4600 3551 l0 -561 120 0 120 0 0 180 0 180 94 0 93 0 124 -180 124
-180 142 0 c89 0 143 4 143 10 0 5 -51 83 -114 172 -62 90 -121 175 -130 190
l-18 27 55 36 c58 38 81 65 118 135 18 36 24 65 27 146 7 176 -34 279 -136
337 -96 54 -131 59 -459 64 l-303 5 0 -561z m487 349 c131 -17 167 -51 167
-159 -1 -140 -49 -171 -271 -179 l-143 -5 0 161 c0 88 3 167 6 176 5 13 22 16
88 16 44 0 114 -5 153 -10z"/>
</g>
</svg>
